<?xml version="1.0" encoding="utf-8"?>
<!-- Generator: Adobe Illustrator 16.0.0, SVG Export Plug-In . SVG Version: 6.00 Build 0)  -->
<!DOCTYPE svg PUBLIC "-//W3C//DTD SVG 1.1//EN" "http://www.w3.org/Graphics/SVG/1.1/DTD/svg11.dtd">
<svg version="1.1" id="Layer_1" xmlns="http://www.w3.org/2000/svg" xmlns:xlink="http://www.w3.org/1999/xlink" x="0px" y="0px"
	 width="200px" height="200px" viewBox="0 0 200 200" enable-background="new 0 0 200 200" xml:space="preserve">
<g>
	<g>
		<rect y="20" fill="#FFFFFF" width="200" height="180"/>
		<rect fill="#92D3D8" width="200" height="10.001"/>
		<rect y="10.001" fill="#E6E5E5" width="200" height="9.999"/>
		<rect x="17.334" y="13" fill="#FFFFFF" width="165.336" height="3.998"/>
		<rect y="5" fill="#F58360" width="17.334" height="5.001"/>
		<rect x="17.334" y="5" fill="#E6E5E5" width="41.334" height="5.001"/>
		<rect x="58.668" y="5" fill="#D9D8D7" width="41.334" height="5.001"/>
		<g>
			<g>
				<rect x="9.863" y="13" fill="#CCCBCA" width="3.996" height="3.998"/>
				<rect x="3.473" y="13" fill="#CCCBCA" width="3.999" height="3.998"/>
				<rect x="192.53" y="13" fill="#CCCBCA" width="3.999" height="3.998"/>
				<rect x="186.141" y="13" fill="#CCCBCA" width="4.001" height="3.998"/>
			</g>
		</g>
	</g>
	<g>
		<rect x="17.334" y="45" fill="#E6E5E5" width="165.336" height="155"/>
		<g>
			<rect x="17.334" y="184.625" fill="#666B74" width="165.336" height="15.375"/>
			<g>
				<g>
					<g>
						<rect x="48.703" y="188.882" fill="#CCCBCA" width="17.291" height="0.668"/>
						<rect x="48.703" y="190.946" fill="#CCCBCA" width="17.291" height="0.667"/>
						<rect x="53.025" y="195.074" fill="#CCCBCA" width="8.646" height="0.669"/>
						<rect x="48.703" y="193.011" fill="#CCCBCA" width="17.291" height="0.668"/>
					</g>
					<g>
						<rect x="77.139" y="188.882" fill="#CCCBCA" width="17.291" height="0.668"/>
						<rect x="77.139" y="190.946" fill="#CCCBCA" width="17.291" height="0.667"/>
						<rect x="81.461" y="195.074" fill="#CCCBCA" width="8.646" height="0.669"/>
						<rect x="77.139" y="193.011" fill="#CCCBCA" width="17.291" height="0.668"/>
					</g>
					<g>
						<rect x="105.574" y="188.882" fill="#CCCBCA" width="17.291" height="0.668"/>
						<rect x="105.574" y="190.946" fill="#CCCBCA" width="17.291" height="0.667"/>
						<rect x="109.896" y="195.074" fill="#CCCBCA" width="8.646" height="0.669"/>
						<rect x="105.574" y="193.011" fill="#CCCBCA" width="17.291" height="0.668"/>
					</g>
					<g>
						<rect x="134.01" y="188.882" fill="#CCCBCA" width="17.291" height="0.668"/>
						<rect x="134.01" y="190.946" fill="#CCCBCA" width="17.291" height="0.667"/>
						<rect x="138.332" y="195.074" fill="#CCCBCA" width="8.646" height="0.669"/>
						<rect x="134.01" y="193.011" fill="#CCCBCA" width="17.291" height="0.668"/>
					</g>
				</g>
			</g>
		</g>
		<g>
			<rect x="17.334" y="20" fill="#666B74" width="165.336" height="15.375"/>
			<g>
				<rect x="21.534" y="23.688" fill="#FCB95B" width="42.132" height="8"/>
			</g>
			<g>
				<rect x="111.467" y="26.188" fill="#FFFFFF" width="23.533" height="3"/>
				<rect x="138.583" y="26.188" fill="#FFFFFF" width="23.533" height="3"/>
				<rect x="165.699" y="26.188" fill="#FCB95B" width="12.771" height="3"/>
			</g>
		</g>
		<g>
			<rect x="17.334" y="35.375" fill="#CCCBCA" width="165.336" height="9.625"/>
			<rect x="40.867" y="35.375" fill="#48505A" width="23.533" height="9.625"/>
			<g>
				<g>
					<rect x="21.534" y="39.575" fill="#48505A" width="15.133" height="1.225"/>
					<rect x="68.601" y="39.575" fill="#48505A" width="15.133" height="1.225"/>
					<rect x="92.134" y="39.575" fill="#48505A" width="15.133" height="1.225"/>
					<rect x="115.667" y="39.575" fill="#48505A" width="15.133" height="1.225"/>
				</g>
			</g>
		</g>
		<rect x="17.334" y="54.625" fill="#F3F3F3" width="165.336" height="52.926"/>
		<g>
			<rect x="17.334" y="64.588" fill="#666B74" width="46.332" height="33"/>
			<g>
				<rect x="25.501" y="72.736" fill="#FCB95B" width="29.998" height="4.117"/>
				<rect x="25.501" y="79.809" fill="#FFFFFF" width="29.998" height="1.24"/>
				<rect x="25.501" y="84.005" fill="#FFFFFF" width="29.998" height="1.24"/>
				<rect x="25.501" y="88.2" fill="#FFFFFF" width="14.994" height="1.24"/>
			</g>
		</g>
		<g>
			<rect x="135.375" y="64.588" fill="#F7987A" width="35" height="20"/>
			<rect x="100.002" y="90.088" fill="#666B74" width="70.373" height="7.5"/>
			<g>
				<rect x="100.002" y="64.588" fill="#666B74" width="29.998" height="2.085"/>
				<rect x="100.002" y="70.56" fill="#CCCBCA" width="29.998" height="2.085"/>
				<rect x="100.002" y="76.531" fill="#CCCBCA" width="29.998" height="2.085"/>
				<rect x="100.002" y="82.503" fill="#CCCBCA" width="14.999" height="2.085"/>
			</g>
		</g>
		<g>
			<rect x="17.334" y="117.176" fill="#F3F3F3" width="50.998" height="67.449"/>
			<rect x="74.503" y="117.176" fill="#F3F3F3" width="50.998" height="67.449"/>
			<rect x="131.672" y="117.176" fill="#F3F3F3" width="50.998" height="67.449"/>
			<g>
				<g>
					<rect x="27.166" y="159.475" fill="#666B74" width="31.334" height="3.476"/>
					<rect x="27.166" y="166.135" fill="#CCCBCA" width="31.334" height="1.103"/>
					<rect x="27.166" y="169.771" fill="#CCCBCA" width="31.334" height="1.104"/>
					<rect x="34.793" y="173.406" fill="#CCCBCA" width="16.082" height="1.104"/>
				</g>
				<rect x="31.892" y="127.291" fill="#666B74" width="21.884" height="21.885"/>
			</g>
			<g>
				<g>
					<rect x="84.335" y="159.475" fill="#666B74" width="31.334" height="3.476"/>
					<rect x="84.335" y="166.135" fill="#CCCBCA" width="31.334" height="1.103"/>
					<rect x="84.335" y="169.771" fill="#CCCBCA" width="31.334" height="1.104"/>
					<rect x="91.962" y="173.406" fill="#CCCBCA" width="16.082" height="1.104"/>
				</g>
				<rect x="89.06" y="127.291" fill="#F7987A" width="21.884" height="21.885"/>
			</g>
			<g>
				<g>
					<rect x="141.504" y="159.475" fill="#666B74" width="31.334" height="3.476"/>
					<rect x="141.504" y="166.135" fill="#CCCBCA" width="31.334" height="1.103"/>
					<rect x="141.504" y="169.771" fill="#CCCBCA" width="31.334" height="1.104"/>
					<rect x="149.131" y="173.406" fill="#CCCBCA" width="16.082" height="1.104"/>
				</g>
				<rect x="146.228" y="127.291" fill="#FCB95B" width="21.884" height="21.885"/>
			</g>
		</g>
	</g>
</g>
</svg>
