<?xml version="1.0" encoding="utf-8"?>
<!-- Generator: Adobe Illustrator 16.0.0, SVG Export Plug-In . SVG Version: 6.00 Build 0)  -->
<!DOCTYPE svg PUBLIC "-//W3C//DTD SVG 1.1//EN" "http://www.w3.org/Graphics/SVG/1.1/DTD/svg11.dtd">
<svg version="1.1" id="Layer_1" xmlns="http://www.w3.org/2000/svg" xmlns:xlink="http://www.w3.org/1999/xlink" x="0px" y="0px"
	 width="200px" height="197.417px" viewBox="0 0 200 197.417" enable-background="new 0 0 200 197.417" xml:space="preserve">
<g>
	<g>
		<rect y="20" fill="#FFFFFF" width="200" height="180"/>
		<rect fill="#92D3D8" width="200" height="10.001"/>
		<rect y="10.001" fill="#E6E5E5" width="200" height="9.999"/>
		<rect x="17.334" y="13" fill="#FFFFFF" width="165.335" height="3.998"/>
		<rect y="5" fill="#F58360" width="17.334" height="5.001"/>
		<rect x="17.334" y="5" fill="#E6E5E5" width="41.334" height="5.001"/>
		<rect x="58.668" y="5" fill="#D9D8D7" width="41.333" height="5.001"/>
		<g>
			<g>
				<rect x="9.863" y="13" fill="#CCCBCA" width="3.997" height="3.998"/>
				<rect x="3.473" y="13" fill="#CCCBCA" width="3.999" height="3.998"/>
				<rect x="192.53" y="13" fill="#CCCBCA" width="3.999" height="3.998"/>
				<rect x="186.141" y="13" fill="#CCCBCA" width="4.001" height="3.998"/>
			</g>
		</g>
	</g>
	<g>
		<rect x="9.863" y="34" fill="#C6E8ED" width="180.278" height="166"/>
		<g>
			<g>
				<g>
					<rect x="50.954" y="78.354" fill="#FFFFFF" width="11.303" height="11.305"/>
					<g>
						<g>
							<rect x="47.341" y="93.078" fill="#FFFFFF" width="18.527" height="0.651"/>
							<rect x="47.341" y="95.229" fill="#FFFFFF" width="18.527" height="0.652"/>
							<rect x="51.851" y="97.379" fill="#FFFFFF" width="9.51" height="0.651"/>
						</g>
					</g>
				</g>
				<g>
					<rect x="79.886" y="78.354" fill="#FFFFFF" width="11.303" height="11.305"/>
					<g>
						<g>
							<rect x="76.272" y="93.078" fill="#FFFFFF" width="18.527" height="0.651"/>
							<rect x="76.272" y="95.229" fill="#FFFFFF" width="18.527" height="0.652"/>
							<rect x="80.782" y="97.379" fill="#FFFFFF" width="9.51" height="0.651"/>
						</g>
					</g>
				</g>
				<g>
					<rect x="108.817" y="78.354" fill="#FFFFFF" width="11.303" height="11.305"/>
					<g>
						<g>
							<rect x="105.204" y="93.078" fill="#FFFFFF" width="18.527" height="0.651"/>
							<rect x="105.204" y="95.229" fill="#FFFFFF" width="18.527" height="0.652"/>
							<rect x="109.714" y="97.379" fill="#FFFFFF" width="9.51" height="0.651"/>
						</g>
					</g>
				</g>
				<g>
					<rect x="137.749" y="78.354" fill="#FFFFFF" width="11.303" height="11.305"/>
					<g>
						<g>
							<rect x="134.136" y="93.078" fill="#FFFFFF" width="18.527" height="0.651"/>
							<rect x="134.136" y="95.229" fill="#FFFFFF" width="18.527" height="0.652"/>
							<rect x="138.646" y="97.379" fill="#FFFFFF" width="9.51" height="0.651"/>
						</g>
					</g>
				</g>
			</g>
			<rect x="37.502" y="67.554" fill="#FFFFFF" width="125" height="3.279"/>
		</g>
		<g>
			<rect x="23.002" y="50.75" fill="#92D3D8" width="135.414" height="10"/>
			<rect x="115.587" y="53.75" fill="#FFFFFF" width="18.585" height="4"/>
			<rect x="137.002" y="53.75" fill="#FFFFFF" width="18.585" height="4"/>
			<rect x="158.416" y="50.75" fill="#666B74" width="18.586" height="10"/>
			<g>
				<rect x="26.814" y="55.141" fill="#FFFFFF" width="12.053" height="1.219"/>
				<rect x="42.679" y="55.141" fill="#FFFFFF" width="12.053" height="1.219"/>
				<rect x="58.552" y="55.141" fill="#FFFFFF" width="12.054" height="1.219"/>
				<rect x="74.424" y="55.141" fill="#FFFFFF" width="12.053" height="1.219"/>
			</g>
		</g>
		<g>
			<rect y="20" fill="#666B74" width="200" height="14"/>
			<g>
				<g>
					<rect x="9.863" y="26" fill="#C6E8ED" width="43.041" height="2"/>
					<rect x="72.475" y="26" fill="#C6E8ED" width="11.88" height="2"/>
					<rect x="88.12" y="26" fill="#C6E8ED" width="11.88" height="2"/>
				</g>
			</g>
			<g>
				<rect x="136.172" y="23.5" fill="#FFFFFF" width="46.969" height="7"/>
				<rect x="183.141" y="23.5" fill="#92D3D8" width="7.001" height="7"/>
			</g>
		</g>
		<g>
			<g>
				<rect x="23.002" y="38.166" fill="#92D3D8" width="46.321" height="2.768"/>
				<rect x="23.002" y="42.836" fill="#92D3D8" width="92.643" height="0.924"/>
				<rect x="23.002" y="45.66" fill="#92D3D8" width="92.643" height="0.924"/>
			</g>
		</g>
		<g>
			<rect x="9.863" y="104.834" fill="#666B74" width="180.279" height="40"/>
			<g>
				<g>
					<polygon fill="#FFFFFF" points="23.002,127.587 27.437,132.021 27.437,123.152 					"/>
					<polygon fill="#FFFFFF" points="177.002,127.587 172.568,132.021 172.568,123.152 					"/>
				</g>
				<g>
					<rect x="84.493" y="120.018" fill="#92D3D8" width="45.127" height="2.979"/>
					<rect x="84.493" y="125.043" fill="#FFFFFF" width="75.457" height="0.993"/>
					<rect x="84.493" y="128.082" fill="#FFFFFF" width="75.457" height="0.993"/>
					<rect x="84.58" y="131.123" fill="#FFFFFF" width="75.37" height="0.991"/>
					<rect x="84.58" y="134.165" fill="#FFFFFF" width="62.399" height="0.991"/>
				</g>
				<rect x="40.055" y="114.512" fill="#92D3D8" width="39.246" height="20.645"/>
			</g>
		</g>
		<g>
			<g>
				<rect x="23.002" y="152.709" fill="#92D3D8" width="28.583" height="28.582"/>
				<rect x="23.002" y="181.291" fill="#FFFFFF" width="28.583" height="10.834"/>
				<g>
					<rect x="26.752" y="183.441" fill="#666B74" width="21.083" height="0.945"/>
					<rect x="26.752" y="186.236" fill="#CCCBCA" width="21.083" height="0.947"/>
					<rect x="26.752" y="189.031" fill="#CCCBCA" width="10.869" height="0.945"/>
				</g>
			</g>
			<g>
				<rect x="64.808" y="152.709" fill="#92D3D8" width="28.583" height="28.582"/>
				<rect x="64.808" y="181.291" fill="#FFFFFF" width="28.583" height="10.834"/>
				<g>
					<rect x="68.558" y="183.441" fill="#666B74" width="21.083" height="0.945"/>
					<rect x="68.558" y="186.236" fill="#CCCBCA" width="21.083" height="0.947"/>
					<rect x="68.558" y="189.031" fill="#CCCBCA" width="10.869" height="0.945"/>
				</g>
			</g>
			<g>
				<rect x="106.613" y="152.709" fill="#92D3D8" width="28.583" height="28.582"/>
				<rect x="106.613" y="181.291" fill="#FFFFFF" width="28.583" height="10.834"/>
				<g>
					<rect x="110.363" y="183.441" fill="#666B74" width="21.083" height="0.945"/>
					<rect x="110.363" y="186.236" fill="#CCCBCA" width="21.083" height="0.947"/>
					<rect x="110.363" y="189.031" fill="#CCCBCA" width="10.869" height="0.945"/>
				</g>
			</g>
			<g>
				<rect x="148.419" y="152.709" fill="#92D3D8" width="28.583" height="28.582"/>
				<rect x="148.419" y="181.291" fill="#FFFFFF" width="28.583" height="10.834"/>
				<g>
					<rect x="152.169" y="183.441" fill="#666B74" width="21.083" height="0.945"/>
					<rect x="152.169" y="186.236" fill="#CCCBCA" width="21.083" height="0.947"/>
					<rect x="152.169" y="189.031" fill="#CCCBCA" width="10.869" height="0.945"/>
				</g>
			</g>
		</g>
	</g>
</g>
</svg>
