<?xml version="1.0" encoding="utf-8"?>
<!-- Generator: Adobe Illustrator 16.0.0, SVG Export Plug-In . SVG Version: 6.00 Build 0)  -->
<!DOCTYPE svg PUBLIC "-//W3C//DTD SVG 1.1//EN" "http://www.w3.org/Graphics/SVG/1.1/DTD/svg11.dtd">
<svg version="1.1" id="Layer_1" xmlns="http://www.w3.org/2000/svg" xmlns:xlink="http://www.w3.org/1999/xlink" x="0px" y="0px"
	 width="200px" height="200px" viewBox="0 0 200 200" enable-background="new 0 0 200 200" xml:space="preserve">
<g>
	<g>
		<rect y="20" fill="#666B74" width="200" height="180"/>
		<rect fill="#92D3D8" width="200" height="10.001"/>
		<rect y="10.001" fill="#E6E5E5" width="200" height="9.999"/>
		<rect x="17.334" y="13" fill="#FFFFFF" width="165.335" height="3.998"/>
		<rect y="5" fill="#F58360" width="17.334" height="5.001"/>
		<rect x="17.334" y="5" fill="#E6E5E5" width="41.334" height="5.001"/>
		<rect x="58.668" y="5" fill="#D9D8D7" width="41.333" height="5.001"/>
		<g>
			<g>
				<rect x="9.863" y="13" fill="#CCCBCA" width="3.997" height="3.998"/>
				<rect x="3.473" y="13" fill="#CCCBCA" width="3.999" height="3.998"/>
				<rect x="192.53" y="13" fill="#CCCBCA" width="3.999" height="3.998"/>
				<rect x="186.141" y="13" fill="#CCCBCA" width="4.001" height="3.998"/>
			</g>
		</g>
	</g>
	<g>
		<g>
			<rect x="47.5" y="25" fill="#FFFFFF" width="147.5" height="40"/>
			<g>
				<g>
					<g>
						<rect x="80.345" y="47.635" fill="#ACDEE4" width="7.49" height="7.49"/>
						<g>
							<g>
								<rect x="78.373" y="56.418" fill="#CCCBCA" width="11.437" height="0.433"/>
								<rect x="78.373" y="57.843" fill="#CCCBCA" width="11.437" height="0.432"/>
								<rect x="81.157" y="59.269" fill="#CCCBCA" width="5.869" height="0.432"/>
							</g>
						</g>
					</g>
					<g>
						<rect x="98.925" y="47.635" fill="#ACDEE4" width="7.491" height="7.49"/>
						<g>
							<g>
								<rect x="96.953" y="56.418" fill="#CCCBCA" width="11.437" height="0.433"/>
								<rect x="96.953" y="57.843" fill="#CCCBCA" width="11.437" height="0.432"/>
								<rect x="99.736" y="59.269" fill="#CCCBCA" width="5.87" height="0.432"/>
							</g>
						</g>
					</g>
					<g>
						<rect x="117.504" y="47.635" fill="#ACDEE4" width="7.49" height="7.49"/>
						<g>
							<g>
								<rect x="115.531" y="56.418" fill="#CCCBCA" width="11.438" height="0.433"/>
								<rect x="115.531" y="57.843" fill="#CCCBCA" width="11.438" height="0.432"/>
								<rect x="118.316" y="59.269" fill="#CCCBCA" width="5.869" height="0.432"/>
							</g>
						</g>
					</g>
					<g>
						<rect x="136.084" y="47.635" fill="#ACDEE4" width="7.49" height="7.49"/>
						<g>
							<g>
								<rect x="134.111" y="56.418" fill="#CCCBCA" width="11.438" height="0.433"/>
								<rect x="134.111" y="57.843" fill="#CCCBCA" width="11.438" height="0.432"/>
								<rect x="136.895" y="59.269" fill="#CCCBCA" width="5.87" height="0.432"/>
							</g>
						</g>
					</g>
					<g>
						<rect x="154.662" y="47.635" fill="#ACDEE4" width="7.49" height="7.49"/>
						<g>
							<g>
								<rect x="152.689" y="56.418" fill="#CCCBCA" width="11.438" height="0.433"/>
								<rect x="152.689" y="57.843" fill="#CCCBCA" width="11.438" height="0.432"/>
								<rect x="155.475" y="59.269" fill="#CCCBCA" width="5.869" height="0.432"/>
							</g>
						</g>
					</g>
				</g>
				<g>
					<g>
						<polygon fill="#CCCBCA" points="66.411,35.69 69.569,38.849 69.569,32.532 						"/>
						<polygon fill="#CCCBCA" points="176.089,35.69 172.931,38.849 172.931,32.532 						"/>
					</g>
					<g>
						<rect x="78.556" y="30.3" fill="#666B74" width="42.694" height="2.121"/>
						<rect x="78.556" y="33.879" fill="#CCCBCA" width="85.389" height="0.707"/>
						<rect x="78.556" y="36.044" fill="#CCCBCA" width="85.389" height="0.707"/>
						<rect x="78.556" y="38.209" fill="#CCCBCA" width="85.389" height="0.707"/>
						<rect x="93.25" y="40.375" fill="#CCCBCA" width="56" height="0.707"/>
					</g>
				</g>
			</g>
		</g>
		<g>
			<rect x="5" y="25" fill="#ACDEE4" width="42.5" height="40"/>
			<g>
				<rect x="15.75" y="36.106" fill="#FFFFFF" width="21" height="3.316"/>
				<rect x="15.75" y="43.342" fill="#FFFFFF" width="21" height="3.316"/>
				<rect x="20.25" y="50.577" fill="#666B74" width="12" height="3.316"/>
			</g>
		</g>
		<g>
			<g>
				<rect x="5" y="155" fill="#ACDEE4" width="42.5" height="40"/>
				<g>
					<g>
						<rect x="11.081" y="161.081" fill="#666B74" width="2.659" height="2.659"/>
						<rect x="15.443" y="161.081" fill="#FFFFFF" width="25.976" height="2.659"/>
					</g>
					<g>
						<rect x="11.081" y="167.229" fill="#666B74" width="2.659" height="2.658"/>
						<rect x="15.443" y="167.229" fill="#FFFFFF" width="25.976" height="2.658"/>
					</g>
					<g>
						<rect x="11.081" y="173.375" fill="#666B74" width="2.659" height="2.658"/>
						<rect x="15.443" y="173.375" fill="#FFFFFF" width="25.976" height="2.658"/>
					</g>
				</g>
			</g>
			<g>
				<rect x="47.5" y="155" fill="#E6E5E5" width="147.5" height="40"/>
				<g>
					<g>
						<rect x="63.29" y="167.195" fill="#FFFFFF" width="7.573" height="7.572"/>
						<g>
							<g>
								<rect x="74.182" y="173.194" fill="#666B74" width="22.063" height="1.573"/>
								<rect x="63.29" y="176.981" fill="#CCCBCA" width="32.956" height="0.767"/>
								<rect x="63.29" y="179.511" fill="#CCCBCA" width="32.956" height="0.767"/>
								<rect x="68.592" y="182.038" fill="#CCCBCA" width="22.352" height="0.767"/>
							</g>
						</g>
					</g>
					<g>
						<rect x="104.772" y="167.195" fill="#FFFFFF" width="7.573" height="7.572"/>
						<g>
							<g>
								<rect x="115.664" y="173.194" fill="#666B74" width="22.063" height="1.573"/>
								<rect x="104.772" y="176.981" fill="#CCCBCA" width="32.955" height="0.767"/>
								<rect x="104.772" y="179.511" fill="#CCCBCA" width="32.955" height="0.767"/>
								<rect x="110.074" y="182.038" fill="#CCCBCA" width="22.352" height="0.767"/>
							</g>
						</g>
					</g>
					<g>
						<rect x="146.254" y="167.195" fill="#FFFFFF" width="7.574" height="7.572"/>
						<g>
							<g>
								<rect x="157.146" y="173.194" fill="#666B74" width="22.063" height="1.573"/>
								<rect x="146.254" y="176.981" fill="#CCCBCA" width="32.956" height="0.767"/>
								<rect x="146.254" y="179.511" fill="#CCCBCA" width="32.956" height="0.767"/>
								<rect x="151.557" y="182.038" fill="#CCCBCA" width="22.352" height="0.767"/>
							</g>
						</g>
					</g>
				</g>
			</g>
		</g>
		<g>
			<rect x="5" y="76.5" fill="#E6E5E5" width="93.75" height="76"/>
			<g>
				<g>
					<rect x="26.375" y="86.308" fill="#FFFFFF" width="51" height="35.137"/>
					<g>
						<polygon fill="#E6E5E5" points="40.647,99.438 26.375,117.829 54.918,117.829 						"/>
						<polygon fill="#CCCBCA" points="59.012,94.163 40.647,117.829 77.375,117.829 						"/>
						<rect x="26.375" y="117.854" fill="#CCCBCA" width="51" height="3.564"/>
					</g>
				</g>
				<g>
					<rect x="26.375" y="126.293" fill="#666B74" width="51" height="3.621"/>
					<rect x="26.375" y="133.503" fill="#CCCBCA" width="51" height="1.21"/>
					<rect x="26.375" y="137.492" fill="#CCCBCA" width="51" height="1.21"/>
					<rect x="38.789" y="141.481" fill="#CCCBCA" width="26.176" height="1.211"/>
				</g>
			</g>
			<rect x="5" y="67.5" fill="#CCCBCA" width="93.75" height="9"/>
		</g>
		<g>
			<rect x="101.25" y="67.5" fill="#FFFFFF" width="93.75" height="85"/>
			<rect x="101.25" y="67.5" fill="#CCCBCA" width="93.75" height="9"/>
			<g>
				<g>
					<g>
						<rect x="107.162" y="103.985" fill="#666B74" width="9.17" height="9.169"/>
						<g>
							<g>
								<rect x="121.199" y="103.985" fill="#CCCBCA" width="49.186" height="2.12"/>
								<rect x="121.199" y="108.048" fill="#CCCBCA" width="49.186" height="0.671"/>
								<rect x="121.199" y="110.265" fill="#CCCBCA" width="49.186" height="0.673"/>
								<rect x="124.857" y="112.482" fill="#CCCBCA" width="41.871" height="0.672"/>
							</g>
						</g>
					</g>
					<g>
						<rect x="107.162" y="120.702" fill="#666B74" width="9.17" height="9.169"/>
						<g>
							<g>
								<rect x="121.199" y="120.702" fill="#CCCBCA" width="49.186" height="2.12"/>
								<rect x="121.199" y="124.765" fill="#CCCBCA" width="49.186" height="0.671"/>
								<rect x="121.199" y="126.981" fill="#CCCBCA" width="49.186" height="0.673"/>
								<rect x="124.857" y="129.199" fill="#CCCBCA" width="41.871" height="0.672"/>
							</g>
						</g>
					</g>
				</g>
				<g>
					<rect x="107.162" y="82.412" fill="#ACDEE4" width="30.088" height="14.75"/>
					<g>
						<rect x="143.084" y="82.412" fill="#666B74" width="46.004" height="2.471"/>
						<g>
							<g>
								<rect x="143.084" y="87.263" fill="#CCCBCA" width="36.461" height="0.747"/>
								<rect x="143.084" y="89.551" fill="#CCCBCA" width="46.004" height="0.747"/>
								<rect x="143.084" y="91.839" fill="#CCCBCA" width="46.004" height="0.747"/>
								<rect x="143.084" y="94.127" fill="#CCCBCA" width="46.004" height="0.747"/>
								<rect x="143.084" y="96.415" fill="#CCCBCA" width="23.357" height="0.747"/>
							</g>
						</g>
					</g>
				</g>
			</g>
		</g>
	</g>
</g>
<g>
	<g>
		<rect x="-360" y="417" fill="#666B74" width="200" height="180"/>
		<rect x="-360" y="397" fill="#92D3D8" width="200" height="10.001"/>
		<rect x="-360" y="407.001" fill="#E6E5E5" width="200" height="9.999"/>
		<rect x="-342.666" y="410" fill="#FFFFFF" width="165.335" height="3.998"/>
		<rect x="-360" y="402" fill="#F58360" width="17.334" height="5.001"/>
		<rect x="-342.666" y="402" fill="#E6E5E5" width="41.334" height="5.001"/>
		<rect x="-301.332" y="402" fill="#D9D8D7" width="41.333" height="5.001"/>
		<g>
			<g>
				<rect x="-350.137" y="410" fill="#CCCBCA" width="3.997" height="3.998"/>
				<rect x="-356.527" y="410" fill="#CCCBCA" width="3.999" height="3.998"/>
				<rect x="-167.47" y="410" fill="#CCCBCA" width="3.999" height="3.998"/>
				<rect x="-173.859" y="410" fill="#CCCBCA" width="4.001" height="3.998"/>
			</g>
		</g>
	</g>
	<g>
		<g>
			<rect x="-312.5" y="422" fill="#FFFFFF" width="147.5" height="40"/>
			<g>
				<g>
					<g>
						<rect x="-279.655" y="444.635" fill="#ACDEE4" width="7.49" height="7.49"/>
						<g>
							<g>
								<rect x="-281.627" y="453.418" fill="#CCCBCA" width="11.437" height="0.433"/>
								<rect x="-281.627" y="454.843" fill="#CCCBCA" width="11.437" height="0.432"/>
								<rect x="-278.843" y="456.269" fill="#CCCBCA" width="5.869" height="0.432"/>
							</g>
						</g>
					</g>
					<g>
						<rect x="-261.075" y="444.635" fill="#ACDEE4" width="7.491" height="7.49"/>
						<g>
							<g>
								<rect x="-263.047" y="453.418" fill="#CCCBCA" width="11.437" height="0.433"/>
								<rect x="-263.047" y="454.843" fill="#CCCBCA" width="11.437" height="0.432"/>
								<rect x="-260.264" y="456.269" fill="#CCCBCA" width="5.87" height="0.432"/>
							</g>
						</g>
					</g>
					<g>
						<rect x="-242.496" y="444.635" fill="#ACDEE4" width="7.49" height="7.49"/>
						<g>
							<g>
								<rect x="-244.468" y="453.418" fill="#CCCBCA" width="11.437" height="0.433"/>
								<rect x="-244.468" y="454.843" fill="#CCCBCA" width="11.437" height="0.432"/>
								<rect x="-241.684" y="456.269" fill="#CCCBCA" width="5.869" height="0.432"/>
							</g>
						</g>
					</g>
					<g>
						<rect x="-223.917" y="444.635" fill="#ACDEE4" width="7.491" height="7.49"/>
						<g>
							<g>
								<rect x="-225.889" y="453.418" fill="#CCCBCA" width="11.437" height="0.433"/>
								<rect x="-225.889" y="454.843" fill="#CCCBCA" width="11.437" height="0.432"/>
								<rect x="-223.105" y="456.269" fill="#CCCBCA" width="5.87" height="0.432"/>
							</g>
						</g>
					</g>
					<g>
						<rect x="-205.338" y="444.635" fill="#ACDEE4" width="7.491" height="7.49"/>
						<g>
							<g>
								<rect x="-207.31" y="453.418" fill="#CCCBCA" width="11.437" height="0.433"/>
								<rect x="-207.31" y="454.843" fill="#CCCBCA" width="11.437" height="0.432"/>
								<rect x="-204.525" y="456.269" fill="#CCCBCA" width="5.869" height="0.432"/>
							</g>
						</g>
					</g>
				</g>
				<g>
					<g>
						<polygon fill="#CCCBCA" points="-293.589,432.69 -290.431,435.849 -290.431,429.532 						"/>
						<polygon fill="#CCCBCA" points="-183.911,432.69 -187.069,435.849 -187.069,429.532 						"/>
					</g>
					<g>
						<rect x="-281.444" y="427.3" fill="#666B74" width="42.694" height="2.121"/>
						<rect x="-281.444" y="430.879" fill="#CCCBCA" width="85.389" height="0.707"/>
						<rect x="-281.444" y="433.044" fill="#CCCBCA" width="85.389" height="0.707"/>
						<rect x="-281.444" y="435.209" fill="#CCCBCA" width="85.389" height="0.707"/>
						<rect x="-266.75" y="437.375" fill="#CCCBCA" width="56" height="0.707"/>
					</g>
				</g>
			</g>
		</g>
		<g>
			<rect x="-355" y="422" fill="#ACDEE4" width="42.5" height="40"/>
			<g>
				<rect x="-344.25" y="433.106" fill="#FFFFFF" width="21" height="3.316"/>
				<rect x="-344.25" y="440.342" fill="#FFFFFF" width="21" height="3.316"/>
				<rect x="-339.75" y="447.577" fill="#666B74" width="12" height="3.316"/>
			</g>
		</g>
		<g>
			<g>
				<rect x="-355" y="552" fill="#ACDEE4" width="42.5" height="40"/>
				<g>
					<g>
						<rect x="-348.919" y="558.081" fill="#666B74" width="2.659" height="2.659"/>
						<rect x="-344.557" y="558.081" fill="#FFFFFF" width="25.976" height="2.659"/>
					</g>
					<g>
						<rect x="-348.919" y="564.229" fill="#666B74" width="2.659" height="2.658"/>
						<rect x="-344.557" y="564.229" fill="#FFFFFF" width="25.976" height="2.658"/>
					</g>
					<g>
						<rect x="-348.919" y="570.375" fill="#666B74" width="2.659" height="2.658"/>
						<rect x="-344.557" y="570.375" fill="#FFFFFF" width="25.976" height="2.658"/>
					</g>
				</g>
			</g>
			<g>
				<rect x="-312.5" y="552" fill="#E6E5E5" width="147.5" height="40"/>
				<g>
					<g>
						<rect x="-296.71" y="564.195" fill="#FFFFFF" width="7.573" height="7.572"/>
						<g>
							<g>
								<rect x="-285.818" y="570.194" fill="#666B74" width="22.063" height="1.573"/>
								<rect x="-296.71" y="573.981" fill="#CCCBCA" width="32.956" height="0.767"/>
								<rect x="-296.71" y="576.511" fill="#CCCBCA" width="32.956" height="0.767"/>
								<rect x="-291.408" y="579.038" fill="#CCCBCA" width="22.352" height="0.767"/>
							</g>
						</g>
					</g>
					<g>
						<rect x="-255.228" y="564.195" fill="#FFFFFF" width="7.573" height="7.572"/>
						<g>
							<g>
								<rect x="-244.336" y="570.194" fill="#666B74" width="22.063" height="1.573"/>
								<rect x="-255.228" y="573.981" fill="#CCCBCA" width="32.955" height="0.767"/>
								<rect x="-255.228" y="576.511" fill="#CCCBCA" width="32.955" height="0.767"/>
								<rect x="-249.926" y="579.038" fill="#CCCBCA" width="22.352" height="0.767"/>
							</g>
						</g>
					</g>
					<g>
						<rect x="-213.746" y="564.195" fill="#FFFFFF" width="7.573" height="7.572"/>
						<g>
							<g>
								<rect x="-202.854" y="570.194" fill="#666B74" width="22.063" height="1.573"/>
								<rect x="-213.746" y="573.981" fill="#CCCBCA" width="32.956" height="0.767"/>
								<rect x="-213.746" y="576.511" fill="#CCCBCA" width="32.956" height="0.767"/>
								<rect x="-208.443" y="579.038" fill="#CCCBCA" width="22.352" height="0.767"/>
							</g>
						</g>
					</g>
				</g>
			</g>
		</g>
		<g>
			<rect x="-355" y="473.5" fill="#E6E5E5" width="93.75" height="76"/>
			<g>
				<g>
					<rect x="-333.625" y="483.308" fill="#FFFFFF" width="51" height="35.137"/>
					<g>
						<polygon fill="#E6E5E5" points="-319.353,496.438 -333.625,514.829 -305.082,514.829 						"/>
						<polygon fill="#CCCBCA" points="-300.988,491.163 -319.353,514.829 -282.625,514.829 						"/>
						<rect x="-333.625" y="514.854" fill="#CCCBCA" width="51" height="3.564"/>
					</g>
				</g>
				<g>
					<rect x="-333.625" y="523.293" fill="#666B74" width="51" height="3.621"/>
					<rect x="-333.625" y="530.503" fill="#CCCBCA" width="51" height="1.21"/>
					<rect x="-333.625" y="534.492" fill="#CCCBCA" width="51" height="1.21"/>
					<rect x="-321.211" y="538.481" fill="#CCCBCA" width="26.176" height="1.211"/>
				</g>
			</g>
			<rect x="-355" y="464.5" fill="#CCCBCA" width="93.75" height="9"/>
		</g>
		<g>
			<rect x="-258.75" y="464.5" fill="#FFFFFF" width="93.75" height="85"/>
			<rect x="-258.75" y="464.5" fill="#CCCBCA" width="93.75" height="9"/>
			<g>
				<g>
					<g>
						<rect x="-252.837" y="500.985" fill="#666B74" width="9.169" height="9.169"/>
						<g>
							<g>
								<rect x="-238.8" y="500.985" fill="#CCCBCA" width="49.186" height="2.12"/>
								<rect x="-238.8" y="505.048" fill="#CCCBCA" width="49.186" height="0.671"/>
								<rect x="-238.8" y="507.265" fill="#CCCBCA" width="49.186" height="0.673"/>
								<rect x="-235.143" y="509.482" fill="#CCCBCA" width="41.871" height="0.672"/>
							</g>
						</g>
					</g>
					<g>
						<rect x="-252.837" y="517.702" fill="#666B74" width="9.169" height="9.169"/>
						<g>
							<g>
								<rect x="-238.8" y="517.702" fill="#CCCBCA" width="49.186" height="2.12"/>
								<rect x="-238.8" y="521.765" fill="#CCCBCA" width="49.186" height="0.671"/>
								<rect x="-238.8" y="523.981" fill="#CCCBCA" width="49.186" height="0.673"/>
								<rect x="-235.143" y="526.199" fill="#CCCBCA" width="41.871" height="0.672"/>
							</g>
						</g>
					</g>
					<g>
						<rect x="-252.837" y="534.419" fill="#666B74" width="9.169" height="9.169"/>
						<g>
							<g>
								<rect x="-238.8" y="534.419" fill="#CCCBCA" width="49.186" height="2.12"/>
								<rect x="-238.8" y="538.481" fill="#CCCBCA" width="49.186" height="0.671"/>
								<rect x="-238.8" y="540.698" fill="#CCCBCA" width="49.186" height="0.673"/>
								<rect x="-235.143" y="542.916" fill="#CCCBCA" width="41.871" height="0.672"/>
							</g>
						</g>
					</g>
				</g>
				<g>
					<rect x="-252.837" y="479.412" fill="#ACDEE4" width="30.087" height="14.75"/>
					<g>
						<rect x="-216.917" y="479.412" fill="#666B74" width="46.004" height="2.471"/>
						<g>
							<g>
								<rect x="-216.917" y="484.263" fill="#CCCBCA" width="36.461" height="0.747"/>
								<rect x="-216.917" y="486.551" fill="#CCCBCA" width="46.004" height="0.747"/>
								<rect x="-216.917" y="488.839" fill="#CCCBCA" width="46.004" height="0.747"/>
								<rect x="-216.917" y="491.127" fill="#CCCBCA" width="46.004" height="0.747"/>
								<rect x="-216.917" y="493.415" fill="#CCCBCA" width="23.358" height="0.747"/>
							</g>
						</g>
					</g>
				</g>
			</g>
		</g>
	</g>
</g>
<rect x="107.144" y="137.86" fill="#ED1C24" width="51" height="3.621"/>
<rect x="107.144" y="141.481" fill="#ED1C24" width="51" height="3.621"/>
<rect x="138.106" y="141.481" fill="#ED1C24" width="51" height="3.621"/>
<rect x="138.106" y="137.86" fill="#ED1C24" width="51" height="3.621"/>
<text transform="matrix(1 0 0 1 141.459 142.6924)" fill="#FFFFFF" font-family="'MyriadPro-Regular'" font-size="4">КУПИТЬ</text>
</svg>
