<?xml version="1.0" encoding="utf-8"?>
<!-- Generator: Adobe Illustrator 16.0.0, SVG Export Plug-In . SVG Version: 6.00 Build 0)  -->
<!DOCTYPE svg PUBLIC "-//W3C//DTD SVG 1.1//EN" "http://www.w3.org/Graphics/SVG/1.1/DTD/svg11.dtd">
<svg version="1.1" id="Layer_1" xmlns="http://www.w3.org/2000/svg" xmlns:xlink="http://www.w3.org/1999/xlink" x="0px" y="0px"
	 width="200px" height="200px" viewBox="0 0 200 200" enable-background="new 0 0 200 200" xml:space="preserve">
<g>
	<g>
		<rect y="20" fill="#F3F3F3" width="200" height="180"/>
		<rect fill="#92D3D8" width="200" height="10.001"/>
		<rect y="10.001" fill="#E6E5E5" width="200" height="9.999"/>
		<rect x="17.334" y="13" fill="#FFFFFF" width="165.335" height="3.998"/>
		<rect y="5" fill="#F58360" width="17.334" height="5.001"/>
		<rect x="17.334" y="5" fill="#E6E5E5" width="41.334" height="5.001"/>
		<rect x="58.668" y="5" fill="#D9D8D7" width="41.333" height="5.001"/>
		<g>
			<g>
				<rect x="9.863" y="13" fill="#CCCBCA" width="3.997" height="3.998"/>
				<rect x="3.473" y="13" fill="#CCCBCA" width="3.999" height="3.998"/>
				<rect x="192.53" y="13" fill="#CCCBCA" width="3.999" height="3.998"/>
				<rect x="186.141" y="13" fill="#CCCBCA" width="4.001" height="3.998"/>
			</g>
		</g>
	</g>
	<g>
		<g>
			<rect x="9.863" y="100" fill="#D9D8D7" width="180.278" height="10.5"/>
			<g>
				<g>
					<rect x="19.002" y="104.25" fill="#FFFFFF" width="77.355" height="2"/>
					<rect x="131.531" y="104.25" fill="#FFFFFF" width="21.353" height="2"/>
					<rect x="159.65" y="104.25" fill="#666B74" width="21.352" height="2"/>
				</g>
			</g>
		</g>
		<g>
			<rect x="9.863" y="20" fill="#FEC96F" width="180.278" height="30"/>
			<g>
				<g>
					<rect x="30.568" y="25.953" fill="#FFFFFF" width="10.058" height="10.057"/>
					<g>
						<g>
							<rect x="43.128" y="34.437" fill="#666B74" width="12.56" height="1.573"/>
							<rect x="30.568" y="38.224" fill="#FFFFFF" width="25.12" height="0.767"/>
							<rect x="30.568" y="40.753" fill="#FFFFFF" width="25.12" height="0.767"/>
							<rect x="35.87" y="43.28" fill="#FFFFFF" width="14.517" height="0.767"/>
						</g>
					</g>
				</g>
				<g>
					<rect x="68.484" y="25.953" fill="#FFFFFF" width="10.058" height="10.057"/>
					<g>
						<g>
							<rect x="81.044" y="34.437" fill="#666B74" width="12.56" height="1.573"/>
							<rect x="68.484" y="38.224" fill="#FFFFFF" width="25.12" height="0.767"/>
							<rect x="68.484" y="40.753" fill="#FFFFFF" width="25.12" height="0.767"/>
							<rect x="73.786" y="43.28" fill="#FFFFFF" width="14.517" height="0.767"/>
						</g>
					</g>
				</g>
				<g>
					<rect x="106.4" y="25.953" fill="#FFFFFF" width="10.057" height="10.057"/>
					<g>
						<g>
							<rect x="118.96" y="34.437" fill="#666B74" width="12.56" height="1.573"/>
							<rect x="106.4" y="38.224" fill="#FFFFFF" width="25.119" height="0.767"/>
							<rect x="106.4" y="40.753" fill="#FFFFFF" width="25.119" height="0.767"/>
							<rect x="111.702" y="43.28" fill="#FFFFFF" width="14.517" height="0.767"/>
						</g>
					</g>
				</g>
				<g>
					<rect x="144.316" y="25.953" fill="#FFFFFF" width="10.057" height="10.057"/>
					<g>
						<g>
							<rect x="156.876" y="34.437" fill="#666B74" width="12.56" height="1.573"/>
							<rect x="144.316" y="38.224" fill="#FFFFFF" width="25.119" height="0.767"/>
							<rect x="144.316" y="40.753" fill="#FFFFFF" width="25.119" height="0.767"/>
							<rect x="149.618" y="43.28" fill="#FFFFFF" width="14.517" height="0.767"/>
						</g>
					</g>
				</g>
			</g>
		</g>
		<g>
			<rect x="9.863" y="50" fill="#FFFFFF" width="180.278" height="50"/>
			<rect x="30.568" y="55" fill="#FEC96F" width="40" height="40"/>
			<g>
				<g>
					<rect x="106.4" y="55" fill="#D9D8D7" width="55.172" height="5.248"/>
					<rect x="106.4" y="66.584" fill="#666B74" width="55.172" height="5.248"/>
					<rect x="106.4" y="78.168" fill="#D9D8D7" width="55.172" height="5.248"/>
					<rect x="106.4" y="89.752" fill="#D9D8D7" width="55.172" height="5.248"/>
					<rect x="164.188" y="55" fill="#D9D8D7" width="5.248" height="5.248"/>
					<rect x="164.188" y="66.584" fill="#666B74" width="5.248" height="5.248"/>
					<rect x="164.188" y="78.168" fill="#D9D8D7" width="5.248" height="5.248"/>
					<rect x="164.188" y="89.752" fill="#D9D8D7" width="5.248" height="5.248"/>
				</g>
			</g>
		</g>
		<g>
			<g>
				<g>
					<rect x="22.928" y="116.84" fill="#666B74" width="12.283" height="12.285"/>
					<g>
						<g>
							<rect x="19.002" y="133.664" fill="#666B74" width="20.134" height="2.234"/>
							<rect x="19.002" y="137.945" fill="#666B74" width="20.134" height="0.709"/>
							<rect x="19.002" y="140.283" fill="#666B74" width="20.134" height="0.709"/>
							<rect x="23.902" y="142.621" fill="#666B74" width="10.333" height="0.705"/>
						</g>
					</g>
				</g>
			</g>
			<g>
				<g>
					<rect x="70.216" y="116.84" fill="#666B74" width="12.284" height="12.285"/>
					<g>
						<g>
							<rect x="66.29" y="133.664" fill="#666B74" width="20.134" height="2.234"/>
							<rect x="66.29" y="137.945" fill="#666B74" width="20.134" height="0.709"/>
							<rect x="66.29" y="140.283" fill="#666B74" width="20.134" height="0.709"/>
							<rect x="71.19" y="142.621" fill="#666B74" width="10.333" height="0.705"/>
						</g>
					</g>
				</g>
			</g>
			<g>
				<g>
					<rect x="117.505" y="116.84" fill="#666B74" width="12.284" height="12.285"/>
					<g>
						<g>
							<rect x="113.579" y="133.664" fill="#666B74" width="20.134" height="2.234"/>
							<rect x="113.579" y="137.945" fill="#666B74" width="20.134" height="0.709"/>
							<rect x="113.579" y="140.283" fill="#666B74" width="20.134" height="0.709"/>
							<rect x="118.479" y="142.621" fill="#666B74" width="10.332" height="0.705"/>
						</g>
					</g>
				</g>
			</g>
			<g>
				<g>
					<rect x="164.794" y="116.84" fill="#666B74" width="12.283" height="12.285"/>
					<g>
						<g>
							<rect x="160.868" y="133.664" fill="#666B74" width="20.134" height="2.234"/>
							<rect x="160.868" y="137.945" fill="#666B74" width="20.134" height="0.709"/>
							<rect x="160.868" y="140.283" fill="#666B74" width="20.134" height="0.709"/>
							<rect x="165.768" y="142.621" fill="#666B74" width="10.333" height="0.705"/>
						</g>
					</g>
				</g>
			</g>
		</g>
		<g>
			<rect x="9.863" y="149.667" fill="#FFFFFF" width="180.278" height="50.333"/>
			<g>
				<rect x="77.018" y="157.834" fill="#CCCBCA" width="45.969" height="28.729"/>
				<rect x="77.018" y="186.562" fill="#666B74" width="45.969" height="5.271"/>
				<polygon fill="#FFFFFF" points="96.886,168.602 103.119,172.199 96.886,175.797 				"/>
			</g>
			<g>
				<g>
					<g>
						<rect x="19.002" y="157.834" fill="#D9D8D7" width="23.723" height="2.969"/>
						<rect x="19.002" y="163.439" fill="#D9D8D7" width="47.446" height="1.277"/>
						<rect x="19.002" y="167.355" fill="#D9D8D7" width="47.446" height="1.276"/>
						<rect x="19.002" y="171.27" fill="#D9D8D7" width="47.446" height="1.278"/>
						<rect x="19.002" y="175.185" fill="#D9D8D7" width="47.446" height="1.278"/>
						<rect x="30.863" y="179.1" fill="#D9D8D7" width="23.723" height="1.279"/>
					</g>
				</g>
				<g>
					<rect x="19.002" y="186.562" fill="#666B74" width="35.669" height="5.271"/>
					<rect x="54.671" y="186.562" fill="#FEC96F" width="11.776" height="5.271"/>
				</g>
			</g>
			<g>
				<g>
					<g>
						<rect x="133.557" y="178.811" fill="#D9D8D7" width="47.445" height="1.277"/>
						<rect x="133.557" y="182.727" fill="#D9D8D7" width="47.445" height="1.276"/>
						<rect x="133.557" y="186.641" fill="#D9D8D7" width="47.445" height="1.278"/>
						<rect x="133.557" y="190.556" fill="#D9D8D7" width="30.144" height="1.278"/>
					</g>
					<g>
						<rect x="157.004" y="157.834" fill="#D9D8D7" width="23.998" height="1.921"/>
						<rect x="157.004" y="163.75" fill="#D9D8D7" width="23.998" height="1.276"/>
						<rect x="157.004" y="167.664" fill="#D9D8D7" width="14.539" height="1.278"/>
					</g>
					<rect x="133.557" y="157.834" fill="#D9D8D7" width="18.729" height="17.189"/>
				</g>
			</g>
		</g>
	</g>
</g>
</svg>
