<?xml version="1.0" encoding="utf-8"?>
<!-- Generator: Adobe Illustrator 16.0.0, SVG Export Plug-In . SVG Version: 6.00 Build 0)  -->
<!DOCTYPE svg PUBLIC "-//W3C//DTD SVG 1.1//EN" "http://www.w3.org/Graphics/SVG/1.1/DTD/svg11.dtd">
<svg version="1.1" id="Layer_1" xmlns="http://www.w3.org/2000/svg" xmlns:xlink="http://www.w3.org/1999/xlink" x="0px" y="0px"
	 width="200px" height="200px" viewBox="0 0 200 200" enable-background="new 0 0 200 200" xml:space="preserve">
<g>
	<g>
		<rect y="20" fill="#FFFFFF" width="200" height="180"/>
		<rect fill="#92D3D8" width="200" height="10.001"/>
		<rect y="10.001" fill="#E6E5E5" width="200" height="9.999"/>
		<rect x="17.334" y="13" fill="#FFFFFF" width="165.335" height="3.998"/>
		<rect y="5" fill="#F58360" width="17.334" height="5.001"/>
		<rect x="17.334" y="5" fill="#E6E5E5" width="41.334" height="5.001"/>
		<rect x="58.668" y="5" fill="#D9D8D7" width="41.333" height="5.001"/>
		<g>
			<g>
				<rect x="9.863" y="13" fill="#CCCBCA" width="3.997" height="3.998"/>
				<rect x="3.473" y="13" fill="#CCCBCA" width="3.999" height="3.998"/>
				<rect x="192.53" y="13" fill="#CCCBCA" width="3.999" height="3.998"/>
				<rect x="186.141" y="13" fill="#CCCBCA" width="4.001" height="3.998"/>
			</g>
		</g>
	</g>
	<g>
		<g>
			<rect y="120" fill="#666B74" width="100" height="80"/>
			<g>
				<g>
					<rect x="11.333" y="129.31" fill="#FFFFFF" width="77.333" height="50.187"/>
					<rect x="13.804" y="131.78" fill="#CCCBCA" width="72.392" height="45.246"/>
					<polygon fill="#FFFFFF" points="45.093,148.737 54.908,154.403 45.093,160.068 					"/>
				</g>
				<g>
					<rect x="39.09" y="185.559" fill="#FFD780" width="21.82" height="5.132"/>
					<rect x="44.413" y="187.458" fill="#FFFFFF" width="11.173" height="1.333"/>
				</g>
			</g>
		</g>
		<g>
			<rect x="100" y="120" fill="#48505A" width="100" height="80"/>
			<g>
				<g>
					<g>
						<g>
							<rect x="130.688" y="128.363" fill="#666B74" width="28.464" height="1.953"/>
							<g>
								<rect x="130.688" y="132.197" fill="#FFFFFF" width="28.464" height="0.592"/>
								<rect x="130.688" y="134.006" fill="#FFFFFF" width="28.464" height="0.59"/>
								<rect x="130.688" y="135.814" fill="#FFFFFF" width="28.464" height="0.59"/>
								<rect x="130.688" y="137.621" fill="#FFFFFF" width="24.654" height="0.592"/>
							</g>
						</g>
						<rect x="111.334" y="128.363" fill="#CCCBCA" width="15.758" height="9.85"/>
					</g>
					<g>
						<g>
							<rect x="130.688" y="146.172" fill="#666B74" width="28.464" height="1.953"/>
							<g>
								<rect x="130.688" y="150.006" fill="#FFFFFF" width="28.464" height="0.59"/>
								<rect x="130.688" y="151.812" fill="#FFFFFF" width="28.464" height="0.592"/>
								<rect x="130.688" y="153.621" fill="#FFFFFF" width="28.464" height="0.592"/>
								<rect x="130.688" y="155.43" fill="#FFFFFF" width="24.654" height="0.592"/>
							</g>
						</g>
						<rect x="111.334" y="146.172" fill="#CCCBCA" width="15.758" height="9.85"/>
					</g>
					<g>
						<g>
							<rect x="130.688" y="163.979" fill="#666B74" width="28.464" height="1.953"/>
							<g>
								<rect x="130.688" y="167.812" fill="#FFFFFF" width="28.464" height="0.592"/>
								<rect x="130.688" y="169.621" fill="#FFFFFF" width="28.464" height="0.592"/>
								<rect x="130.688" y="171.43" fill="#FFFFFF" width="28.464" height="0.59"/>
								<rect x="130.688" y="173.238" fill="#FFFFFF" width="24.654" height="0.59"/>
							</g>
						</g>
						<rect x="111.334" y="163.979" fill="#CCCBCA" width="15.758" height="9.85"/>
					</g>
					<g>
						<g>
							<rect x="130.688" y="181.787" fill="#666B74" width="28.464" height="1.953"/>
							<g>
								<rect x="130.688" y="185.621" fill="#FFFFFF" width="28.464" height="0.59"/>
								<rect x="130.688" y="187.428" fill="#FFFFFF" width="28.464" height="0.592"/>
								<rect x="130.688" y="189.236" fill="#FFFFFF" width="28.464" height="0.592"/>
								<rect x="130.688" y="191.045" fill="#FFFFFF" width="24.654" height="0.592"/>
							</g>
						</g>
						<rect x="111.334" y="181.787" fill="#CCCBCA" width="15.758" height="9.85"/>
					</g>
				</g>
				<g>
					<g>
						<polygon fill="#FFD780" points="183.024,128.363 188.668,134.006 177.383,134.006 						"/>
						<polygon fill="#FFD780" points="183.025,191.637 177.383,185.994 188.666,185.994 						"/>
					</g>
				</g>
			</g>
		</g>
		<g>
			<g>
				<rect x="11.333" y="82.025" fill="#CCCBCA" width="42.469" height="4.994"/>
				<rect x="11.333" y="92.92" fill="#CCCBCA" width="42.469" height="4.994"/>
				<rect x="32.568" y="103.812" fill="#666B74" width="21.235" height="4.994"/>
			</g>
			<rect x="11.333" y="49.072" fill="#FFD780" width="42.469" height="27.055"/>
			<rect x="17.857" y="55.596" fill="#FCB95B" width="29.421" height="14.006"/>
		</g>
		<g>
			<rect x="20" y="27.879" fill="#FFD780" width="160" height="10"/>
			<g>
				<g>
					<rect x="68.454" y="32.041" fill="#FFFFFF" width="17.38" height="1.676"/>
					<rect x="45.51" y="32.041" fill="#FFFFFF" width="17.38" height="1.676"/>
					<rect x="114.231" y="32.041" fill="#FFFFFF" width="17.381" height="1.676"/>
					<rect x="91.341" y="32.041" fill="#FFFFFF" width="17.381" height="1.676"/>
					<rect x="137.109" y="32.041" fill="#FFFFFF" width="17.381" height="1.676"/>
				</g>
			</g>
		</g>
		<g>
			<rect x="68.454" y="49.072" fill="#666B74" width="120.212" height="59.734"/>
			<rect x="75.454" y="56.072" fill="#48505A" width="45.733" height="45.734"/>
			<g>
				<rect x="128.803" y="56.072" fill="#FFD780" width="26.125" height="3.265"/>
				<rect x="128.803" y="61.581" fill="#CCCBCA" width="52.25" height="1.089"/>
				<rect x="128.803" y="64.914" fill="#CCCBCA" width="52.25" height="1.088"/>
				<rect x="128.803" y="68.246" fill="#CCCBCA" width="52.25" height="1.089"/>
				<rect x="128.803" y="71.579" fill="#CCCBCA" width="52.25" height="1.088"/>
				<rect x="141.865" y="74.912" fill="#CCCBCA" width="26.125" height="1.088"/>
			</g>
		</g>
	</g>
</g>
</svg>
