<?xml version="1.0" encoding="utf-8"?>
<!-- Generator: Adobe Illustrator 16.0.0, SVG Export Plug-In . SVG Version: 6.00 Build 0)  -->
<!DOCTYPE svg PUBLIC "-//W3C//DTD SVG 1.1//EN" "http://www.w3.org/Graphics/SVG/1.1/DTD/svg11.dtd">
<svg version="1.1" id="Layer_1" xmlns="http://www.w3.org/2000/svg" xmlns:xlink="http://www.w3.org/1999/xlink" x="0px" y="0px"
	 width="200px" height="200px" viewBox="0 0 200 200" enable-background="new 0 0 200 200" xml:space="preserve">
<g>
	<g>
		<rect y="20" fill="#F3F3F3" width="200" height="180"/>
		<rect fill="#92D3D8" width="200" height="10.001"/>
		<rect y="10.001" fill="#E6E5E5" width="200" height="9.999"/>
		<rect x="17.334" y="13" fill="#FFFFFF" width="165.336" height="3.998"/>
		<rect y="5" fill="#F58360" width="17.334" height="5.001"/>
		<rect x="17.334" y="5" fill="#E6E5E5" width="41.334" height="5.001"/>
		<rect x="58.668" y="5" fill="#D9D8D7" width="41.334" height="5.001"/>
		<g>
			<g>
				<rect x="9.863" y="13" fill="#CCCBCA" width="3.996" height="3.998"/>
				<rect x="3.473" y="13" fill="#CCCBCA" width="3.999" height="3.998"/>
				<rect x="192.53" y="13" fill="#CCCBCA" width="3.999" height="3.998"/>
				<rect x="186.141" y="13" fill="#CCCBCA" width="4.001" height="3.998"/>
			</g>
		</g>
	</g>
	<g>
		<rect x="9.863" y="20" fill="#FFFFFF" width="180.277" height="180"/>
		<g>
			<rect x="9.863" y="37.5" fill="#666B74" width="180.278" height="40.854"/>
			<g>
				<g>
					<g>
						<g>
							<rect x="91.334" y="46.914" fill="#FEC96F" width="13.242" height="2.838"/>
							<rect x="91.334" y="52.336" fill="#FFFFFF" width="26.484" height="1.254"/>
							<rect x="91.334" y="56.174" fill="#FFFFFF" width="26.484" height="1.252"/>
							<rect x="91.334" y="60.012" fill="#FFFFFF" width="26.484" height="1.252"/>
							<rect x="91.334" y="63.85" fill="#FFFFFF" width="26.484" height="1.252"/>
							<rect x="91.334" y="67.688" fill="#FFFFFF" width="13.242" height="1.252"/>
						</g>
					</g>
					<g>
						<g>
							<rect x="123.76" y="46.914" fill="#FEC96F" width="13.242" height="2.838"/>
							<rect x="123.76" y="52.336" fill="#FFFFFF" width="26.484" height="1.254"/>
							<rect x="123.76" y="56.174" fill="#FFFFFF" width="26.484" height="1.252"/>
							<rect x="123.76" y="60.012" fill="#FFFFFF" width="26.484" height="1.252"/>
							<rect x="123.76" y="63.85" fill="#FFFFFF" width="26.484" height="1.252"/>
							<rect x="123.76" y="67.688" fill="#FFFFFF" width="13.242" height="1.252"/>
						</g>
					</g>
					<g>
						<g>
							<rect x="156.186" y="46.914" fill="#FEC96F" width="13.241" height="2.838"/>
							<rect x="156.186" y="52.336" fill="#FFFFFF" width="26.484" height="1.254"/>
							<rect x="156.186" y="56.174" fill="#FFFFFF" width="26.484" height="1.252"/>
							<rect x="156.186" y="60.012" fill="#FFFFFF" width="26.484" height="1.252"/>
							<rect x="156.186" y="63.85" fill="#FFFFFF" width="26.484" height="1.252"/>
							<rect x="156.186" y="67.688" fill="#FFFFFF" width="13.241" height="1.252"/>
						</g>
					</g>
				</g>
			</g>
		</g>
		<g>
			<rect x="9.863" y="20" fill="#48505A" width="180.278" height="17.5"/>
			<g>
				<rect x="17.334" y="32.381" fill="#FFFFFF" width="43.416" height="1.5"/>
				<rect x="17.334" y="23.619" fill="#FEC96F" width="43.416" height="5.918"/>
			</g>
			<g>
				<rect x="113.611" y="32.381" fill="#FFFFFF" width="17" height="1.5"/>
				<rect x="139.635" y="32.381" fill="#FFFFFF" width="17" height="1.5"/>
				<rect x="165.67" y="32.381" fill="#FFFFFF" width="17" height="1.5"/>
			</g>
		</g>
		<g>
			<rect x="9.863" y="84.272" fill="#E6E5E5" width="50.887" height="37.03"/>
			<g>
				<g>
					<rect x="17.68" y="92.994" fill="#666B74" width="27.941" height="1.479"/>
					<rect x="17.68" y="97.521" fill="#666B74" width="35.254" height="1.479"/>
					<rect x="17.68" y="102.049" fill="#666B74" width="35.254" height="1.478"/>
					<rect x="17.68" y="106.575" fill="#666B74" width="35.254" height="1.479"/>
					<rect x="17.68" y="111.103" fill="#666B74" width="17.899" height="1.479"/>
				</g>
			</g>
			<rect x="9.863" y="127.221" fill="#E6E5E5" width="50.887" height="37.03"/>
			<g>
				<g>
					<rect x="17.68" y="135.942" fill="#666B74" width="27.941" height="1.479"/>
					<rect x="17.68" y="140.47" fill="#666B74" width="35.254" height="1.479"/>
					<rect x="17.68" y="144.997" fill="#666B74" width="35.254" height="1.478"/>
					<rect x="17.68" y="149.523" fill="#666B74" width="35.254" height="1.479"/>
					<rect x="17.68" y="154.051" fill="#666B74" width="17.899" height="1.479"/>
				</g>
			</g>
			<rect x="9.863" y="121.303" fill="#FEC96F" width="50.887" height="5.918"/>
			<rect x="9.863" y="78.354" fill="#FEC96F" width="50.887" height="5.918"/>
			<rect x="9.863" y="164.25" fill="#FEC96F" width="50.887" height="35.75"/>
			<g>
				<g>
					<rect x="17.68" y="172.332" fill="#FFFFFF" width="35.254" height="1.479"/>
					<rect x="17.68" y="176.859" fill="#FFFFFF" width="35.254" height="1.479"/>
					<rect x="17.68" y="181.387" fill="#FFFFFF" width="35.254" height="1.477"/>
					<rect x="17.68" y="185.912" fill="#FFFFFF" width="35.254" height="1.479"/>
					<rect x="17.68" y="190.439" fill="#FFFFFF" width="17.899" height="1.479"/>
				</g>
			</g>
		</g>
		<g>
			<g>
				<rect x="69.91" y="87.515" fill="#E6E5E5" width="22.951" height="18.479"/>
				<g>
					<rect x="69.91" y="108.353" fill="#666B74" width="22.951" height="0.818"/>
					<rect x="69.91" y="110.771" fill="#CCCBCA" width="22.951" height="0.818"/>
					<rect x="69.91" y="113.189" fill="#CCCBCA" width="11.832" height="0.818"/>
				</g>
			</g>
			<g>
				<rect x="99.283" y="87.515" fill="#FEC96F" width="22.951" height="18.479"/>
				<g>
					<rect x="99.283" y="108.353" fill="#666B74" width="22.951" height="0.818"/>
					<rect x="99.283" y="110.771" fill="#CCCBCA" width="22.951" height="0.818"/>
					<rect x="99.283" y="113.189" fill="#CCCBCA" width="11.832" height="0.818"/>
				</g>
			</g>
			<g>
				<rect x="128.656" y="87.515" fill="#E6E5E5" width="22.951" height="18.479"/>
				<g>
					<rect x="128.656" y="108.353" fill="#666B74" width="22.951" height="0.818"/>
					<rect x="128.656" y="110.771" fill="#CCCBCA" width="22.951" height="0.818"/>
					<rect x="128.656" y="113.189" fill="#CCCBCA" width="11.832" height="0.818"/>
				</g>
			</g>
			<g>
				<rect x="158.029" y="87.515" fill="#E6E5E5" width="22.951" height="18.479"/>
				<g>
					<rect x="158.029" y="108.353" fill="#666B74" width="22.951" height="0.818"/>
					<rect x="158.029" y="110.771" fill="#CCCBCA" width="22.951" height="0.818"/>
					<rect x="158.029" y="113.189" fill="#CCCBCA" width="11.834" height="0.818"/>
				</g>
			</g>
			<g>
				<rect x="69.91" y="120.016" fill="#E6E5E5" width="22.951" height="18.479"/>
				<g>
					<rect x="69.91" y="140.854" fill="#666B74" width="22.951" height="0.818"/>
					<rect x="69.91" y="143.272" fill="#CCCBCA" width="22.951" height="0.818"/>
					<rect x="69.91" y="145.69" fill="#CCCBCA" width="11.832" height="0.818"/>
				</g>
			</g>
			<g>
				<rect x="99.283" y="120.016" fill="#E6E5E5" width="22.951" height="18.479"/>
				<g>
					<rect x="99.283" y="140.854" fill="#666B74" width="22.951" height="0.818"/>
					<rect x="99.283" y="143.272" fill="#CCCBCA" width="22.951" height="0.818"/>
					<rect x="99.283" y="145.69" fill="#CCCBCA" width="11.832" height="0.818"/>
				</g>
			</g>
			<g>
				<rect x="128.656" y="120.016" fill="#E6E5E5" width="22.951" height="18.479"/>
				<g>
					<rect x="128.656" y="140.854" fill="#666B74" width="22.951" height="0.818"/>
					<rect x="128.656" y="143.272" fill="#CCCBCA" width="22.951" height="0.818"/>
					<rect x="128.656" y="145.69" fill="#CCCBCA" width="11.832" height="0.818"/>
				</g>
			</g>
			<g>
				<rect x="158.029" y="120.016" fill="#E6E5E5" width="22.951" height="18.479"/>
				<g>
					<rect x="158.029" y="140.854" fill="#666B74" width="22.951" height="0.818"/>
					<rect x="158.029" y="143.272" fill="#CCCBCA" width="22.951" height="0.818"/>
					<rect x="158.029" y="145.69" fill="#CCCBCA" width="11.834" height="0.818"/>
				</g>
			</g>
			<g>
				<rect x="69.91" y="152.517" fill="#E6E5E5" width="22.951" height="18.479"/>
				<g>
					<rect x="69.91" y="173.354" fill="#666B74" width="22.951" height="0.818"/>
					<rect x="69.91" y="175.773" fill="#CCCBCA" width="22.951" height="0.818"/>
					<rect x="69.91" y="178.191" fill="#CCCBCA" width="11.832" height="0.818"/>
				</g>
			</g>
			<g>
				<rect x="99.283" y="152.517" fill="#E6E5E5" width="22.951" height="18.479"/>
				<g>
					<rect x="99.283" y="173.354" fill="#666B74" width="22.951" height="0.818"/>
					<rect x="99.283" y="175.773" fill="#CCCBCA" width="22.951" height="0.818"/>
					<rect x="99.283" y="178.191" fill="#CCCBCA" width="11.832" height="0.818"/>
				</g>
			</g>
		</g>
	</g>
</g>
</svg>
