<?xml version="1.0" encoding="utf-8"?>
<!-- Generator: Adobe Illustrator 19.2.0, SVG Export Plug-In . SVG Version: 6.00 Build 0)  -->
<svg version="1.1" id="Слой_1" xmlns="http://www.w3.org/2000/svg" xmlns:xlink="http://www.w3.org/1999/xlink" x="0px" y="0px"
	 viewBox="0 0 2070.4 485.9" style="enable-background:new 0 0 2070.4 485.9;" xml:space="preserve">
<style type="text/css">
	.st0{fill:#FFFFFF;}
	.st1{fill:#EABF44;}
	.st2{fill:none;}
	.st3{enable-background:new    ;}
	.st4{fill:none;stroke:#242121;stroke-width:2;stroke-miterlimit:10;}
	.st5{fill:none;stroke:#E3BD4F;stroke-width:2;stroke-miterlimit:10;}
</style>
<polygon class="st0" points="485.9,160.9 485.9,485.9 10.8,484.9 485.9,9 485.9,127.7 223,390.6 390.6,390.6 390.6,256.2 "/>
<polygon class="st1" points="325,0 0,0 1,475.1 476.9,0 358.2,0 95.3,262.9 95.3,95.3 229.7,95.3 "/>
<rect x="543.9" y="134.7" class="st2" width="736.7" height="348.5"/>
<g class="st3">
	<path class="st0" d="M622.7,377l-75.3-263h27.1l64.8,228.8L702.3,114h25l62.9,228.8L855.1,114h27.1l-75.6,263h-33.7l-58.4-215.7
		L656.8,377H622.7z"/>
	<path class="st0" d="M912.8,377V114h143.8v23.8H939.1V232h113.7v24H939.1v97.2h117.5V377H912.8z"/>
	<path class="st0" d="M1103.5,377V114h61.5c15.9,0,29.1,1.2,39.5,3.7c10.5,2.4,19.5,6.3,27,11.6c7.4,5.4,13.2,12.8,17.3,22.1
		c4.1,9.3,6.2,19.6,6.2,30.9c0,13.1-2.3,24-7,32.8c-4.7,8.8-12.1,16-22.2,21.6c15.3,6.5,26.5,14.9,33.5,25.2
		c7.1,10.3,10.6,23.5,10.6,39.6c0,13.6-2.6,25.8-7.8,36.6c-5.2,10.8-12.5,19.2-21.7,24.9c-8.3,5-18.1,8.5-29.1,10.7
		c-11.1,2.1-25.4,3.2-42.8,3.2H1103.5z M1129.8,227.1h32.2c11.8,0,21.1-0.5,27.9-1.5c6.8-1,12.9-2.8,18.3-5.3
		c6.6-3,11.6-7.8,15-14.3c3.4-6.5,5.1-14.3,5.1-23.5c0-7.8-1.4-14.9-4.2-21.4c-2.8-6.5-6.5-11.2-11.1-14.3
		c-4.9-3.4-11.3-5.7-19.2-7.1c-7.9-1.4-18.7-2.1-32.4-2.1h-31.6V227.1z M1129.8,353.2h36c26.1,0,45.1-3.2,57-9.7
		c6.3-3.2,11.3-8.5,15-15.9c3.8-7.4,5.6-15.6,5.6-24.6c0-11.7-2.7-21.7-8.1-30c-5.4-8.3-12.8-13.9-22.3-16.9c-11.5-3.4-28.8-5-52-5
		h-31.3V353.2z"/>
</g>
<rect x="542.9" y="132.7" class="st2" width="738.7" height="351.5"/>
<g class="st3">
	<path class="st4" d="M621.7,375l-75.3-263h27.1l64.8,228.8L701.3,112h25l62.9,228.8L854.1,112h27.1l-75.6,263h-33.7l-58.4-215.7
		L655.8,375H621.7z"/>
	<path class="st4" d="M911.8,375V112h143.8v23.8H938.1V230h113.7v24H938.1v97.2h117.5V375H911.8z"/>
	<path class="st4" d="M1102.5,375V112h61.5c15.9,0,29.1,1.2,39.5,3.7c10.5,2.4,19.5,6.3,27,11.6c7.4,5.4,13.2,12.8,17.3,22.1
		c4.1,9.3,6.2,19.6,6.2,30.9c0,13.1-2.3,24-7,32.8c-4.7,8.8-12.1,16-22.2,21.6c15.3,6.5,26.5,14.9,33.5,25.2
		c7.1,10.3,10.6,23.5,10.6,39.6c0,13.6-2.6,25.8-7.8,36.6c-5.2,10.8-12.5,19.2-21.7,24.9c-8.3,5-18.1,8.5-29.1,10.7
		c-11.1,2.1-25.4,3.2-42.8,3.2H1102.5z M1128.8,225.1h32.2c11.8,0,21.1-0.5,27.9-1.5c6.8-1,12.9-2.8,18.3-5.3
		c6.6-3,11.6-7.8,15-14.3c3.4-6.5,5.1-14.3,5.1-23.5c0-7.8-1.4-14.9-4.2-21.4c-2.8-6.5-6.5-11.2-11.1-14.3
		c-4.9-3.4-11.3-5.7-19.2-7.1c-7.9-1.4-18.7-2.1-32.4-2.1h-31.6V225.1z M1128.8,351.2h36c26.1,0,45.1-3.2,57-9.7
		c6.3-3.2,11.3-8.5,15-15.9c3.8-7.4,5.6-15.6,5.6-24.6c0-11.7-2.7-21.7-8.1-30c-5.4-8.3-12.8-13.9-22.3-16.9c-11.5-3.4-28.8-5-52-5
		h-31.3V351.2z"/>
</g>
<rect x="1280.6" y="130" class="st2" width="790" height="353.2"/>
<g class="st3">
	<path class="st1" d="M1437.3,104.6c18.3,0,35.9,3.7,52.8,11s31.5,17,43.8,29.2s22.2,26.7,29.6,43.5c7.4,16.9,11,34.4,11,52.6
		c0,18.3-3.7,35.9-11,52.7c-7.4,16.8-17.3,31.3-29.7,43.5c-12.5,12.2-27.3,21.9-44.4,29.1c-17.2,7.2-35.1,10.9-53.7,10.9
		c-18.7,0-36.6-3.6-53.8-10.9s-32-17-44.5-29.2c-12.5-12.2-22.4-26.7-29.8-43.5c-7.4-16.7-11.1-34.3-11.1-52.6
		c0-24.9,6.3-47.8,18.8-68.7s29.6-37.3,51.2-49.5C1387.9,110.6,1411.6,104.6,1437.3,104.6z M1434.2,128.7
		c-19.7,0-38.1,5.1-55.2,15.3c-17.1,10.2-30.7,23.9-40.8,41.2c-10.1,17.3-15.1,35.8-15.1,55.6c0,20.1,5.1,38.7,15.2,55.9
		c10.1,17.2,23.8,30.8,41.1,40.8c17.3,10,36,15,56.1,15c15.1,0,29.5-3,43.3-9c13.8-6,25.7-13.9,35.8-23.9
		c10.1-10,18.1-21.8,24.1-35.5c6-13.7,9-28.1,9-43c0-15.3-3-29.9-9-43.8c-6-13.9-14-25.9-24.2-35.9c-10.1-10-22.2-18-36.2-23.9
		C1464.3,131.7,1449.6,128.7,1434.2,128.7z"/>
	<path class="st1" d="M1717.7,274.1l73.7,98.2h-32.7L1670.1,253c28.3,0,48.4-1.7,60.5-5c25.4-7.5,38.1-25.8,38.1-54.8
		c0-12.1-2.4-22.4-7.2-31.1c-4.8-8.7-11.7-15.2-20.6-19.5c-13.4-6.4-33.6-9.6-60.5-9.6h-37v239.2H1617v-263h65
		c34.3,0,59.5,4.5,75.6,13.4c12.3,7.2,21.6,16.8,28.1,28.9c6.4,12.1,9.6,26.1,9.6,42.1c0,23.5-6.6,42.2-19.9,55.9
		C1762.2,263.2,1742.9,271.4,1717.7,274.1z"/>
	<path class="st1" d="M1833.1,372.3v-263h61.9c24.7,0,44.9,1.7,60.6,5.1c15.7,3.4,29.9,9.2,42.7,17.3c18.7,11.7,32.8,26.9,42.5,45.5
		c9.7,18.7,14.5,40.1,14.5,64.3c0,25.1-5.4,47.4-16.3,66.7c-10.8,19.3-26.6,34.6-47.2,46c-21.9,12.1-51.2,18.1-88,18.1H1833.1z
		 M1859.4,348.5h36.7c24,0,43.5-2,58.4-5.9c14.9-3.9,27.8-10.4,38.4-19.5c11.5-9.8,20.3-21.9,26.4-36.2c6.1-14.3,9.2-29.7,9.2-46.4
		c0-20-4.4-38.1-13.2-54.2c-8.8-16.1-21.2-28.6-37-37.5c-9.6-5.4-20.9-9.4-33.9-11.9c-13-2.5-29.1-3.7-48.3-3.7h-36.7V348.5z"/>
</g>
<rect x="1279.6" y="128" class="st2" width="792" height="356.2"/>
<g class="st3">
	<path class="st5" d="M1436.3,102.6c18.3,0,35.9,3.7,52.8,11s31.5,17,43.8,29.2s22.2,26.7,29.6,43.5c7.4,16.9,11,34.4,11,52.6
		c0,18.3-3.7,35.9-11,52.7c-7.4,16.8-17.3,31.3-29.7,43.5c-12.5,12.2-27.3,21.9-44.4,29.1c-17.2,7.2-35.1,10.9-53.7,10.9
		c-18.7,0-36.6-3.6-53.8-10.9s-32-17-44.5-29.2c-12.5-12.2-22.4-26.7-29.8-43.5c-7.4-16.7-11.1-34.3-11.1-52.6
		c0-24.9,6.3-47.8,18.8-68.7s29.6-37.3,51.2-49.5C1386.9,108.6,1410.6,102.6,1436.3,102.6z M1433.2,126.7
		c-19.7,0-38.1,5.1-55.2,15.3c-17.1,10.2-30.7,23.9-40.8,41.2c-10.1,17.3-15.1,35.8-15.1,55.6c0,20.1,5.1,38.7,15.2,55.9
		c10.1,17.2,23.8,30.8,41.1,40.8c17.3,10,36,15,56.1,15c15.1,0,29.5-3,43.3-9c13.8-6,25.7-13.9,35.8-23.9
		c10.1-10,18.1-21.8,24.1-35.5c6-13.7,9-28.1,9-43c0-15.3-3-29.9-9-43.8c-6-13.9-14-25.9-24.2-35.9c-10.1-10-22.2-18-36.2-23.9
		C1463.3,129.7,1448.6,126.7,1433.2,126.7z"/>
	<path class="st5" d="M1716.7,272.1l73.7,98.2h-32.7L1669.1,251c28.3,0,48.4-1.7,60.5-5c25.4-7.5,38.1-25.8,38.1-54.8
		c0-12.1-2.4-22.4-7.2-31.1c-4.8-8.7-11.7-15.2-20.6-19.5c-13.4-6.4-33.6-9.6-60.5-9.6h-37v239.2H1616v-263h65
		c34.3,0,59.5,4.5,75.6,13.4c12.3,7.2,21.6,16.8,28.1,28.9c6.4,12.1,9.6,26.1,9.6,42.1c0,23.5-6.6,42.2-19.9,55.9
		C1761.2,261.2,1741.9,269.4,1716.7,272.1z"/>
	<path class="st5" d="M1832.1,370.3v-263h61.9c24.7,0,44.9,1.7,60.6,5.1c15.7,3.4,29.9,9.2,42.7,17.3c18.7,11.7,32.8,26.9,42.5,45.5
		c9.7,18.7,14.5,40.1,14.5,64.3c0,25.1-5.4,47.4-16.3,66.7c-10.8,19.3-26.6,34.6-47.2,46c-21.9,12.1-51.2,18.1-88,18.1H1832.1z
		 M1858.4,346.5h36.7c24,0,43.5-2,58.4-5.9c14.9-3.9,27.8-10.4,38.4-19.5c11.5-9.8,20.3-21.9,26.4-36.2c6.1-14.3,9.2-29.7,9.2-46.4
		c0-20-4.4-38.1-13.2-54.2c-8.8-16.1-21.2-28.6-37-37.5c-9.6-5.4-20.9-9.4-33.9-11.9c-13-2.5-29.1-3.7-48.3-3.7h-36.7V346.5z"/>
</g>
</svg>
