<?xml version="1.0" encoding="utf-8"?>
<!-- Generator: Adobe Illustrator 19.2.0, SVG Export Plug-In . SVG Version: 6.00 Build 0)  -->
<svg version="1.1" id="Слой_1" xmlns="http://www.w3.org/2000/svg" xmlns:xlink="http://www.w3.org/1999/xlink" x="0px" y="0px"
	 viewBox="0 0 2070.4 485.9" style="enable-background:new 0 0 2070.4 485.9;" xml:space="preserve">
<style type="text/css">
	.st0{fill:#FFFFFF;}
	.st1{fill:#EF2D56;}
	.st2{fill:none;}
	.st3{font-family:'Evolventa-Regular';}
	.st4{font-size:356px;}
	.st5{fill:none;stroke:#242121;stroke-width:2;stroke-miterlimit:10;}
	.st6{fill:none;stroke:#E3BD4F;stroke-width:2;stroke-miterlimit:10;}
</style>
<polygon class="st0" points="485.9,160.9 485.9,485.9 10.8,484.9 485.9,9 485.9,127.7 223,390.6 390.6,390.6 390.6,256.2 "/>
<polygon class="st1" points="325,0 0,0 1,475.1 476.9,0 358.2,0 95.3,262.9 95.3,95.3 229.7,95.3 "/>
<rect x="554.9" y="123.3" class="st2" width="3575.7" height="725.1"/>
<rect x="554.9" y="123.3" class="st2" width="736.7" height="348.5"/>
<text transform="matrix(1 0 0 1 554.9424 365.5782)" class="st0 st3 st4">WEB</text>
<rect x="553.9" y="121.3" class="st2" width="738.7" height="351.5"/>
<text transform="matrix(1 0 0 1 553.9424 363.5782)" class="st5 st3 st4">WEB</text>
<rect x="1291.6" y="118.6" class="st2" width="790" height="353.2"/>
<text transform="matrix(1 0 0 1 1291.6425 360.879)" class="st1 st3 st4">ORD</text>
<rect x="1290.6" y="116.6" class="st2" width="792" height="356.2"/>
<text transform="matrix(1 0 0 1 1290.6425 358.879)" class="st6 st3 st4">ORD</text>
</svg>
